SplineFontDB: 3.0
FontName: SortsMillWalbaum-Italic
FullName: Sorts Mill Walbaum Italic
FamilyName: SortsMillWalbaum
Weight: Regular
Copyright: Copyright (c) 2009 Barry Schwartz\n\nPermission is hereby granted, free of charge, to any person\nobtaining a copy of this software and associated documentation\nfiles (the "Software"), to deal in the Software without\nrestriction, including without limitation the rights to use,\ncopy, modify, merge, publish, distribute, sublicense, and/or sell\ncopies of the Software, and to permit persons to whom the\nSoftware is furnished to do so, subject to the following\nconditions:\n\nThe above copyright notice and this permission notice shall be\nincluded in all copies or substantial portions of the Software.\n\nTHE SOFTWARE IS PROVIDED "AS IS", WITHOUT WARRANTY OF ANY KIND,\nEXPRESS OR IMPLIED, INCLUDING BUT NOT LIMITED TO THE WARRANTIES\nOF MERCHANTABILITY, FITNESS FOR A PARTICULAR PURPOSE AND\nNONINFRINGEMENT. IN NO EVENT SHALL THE AUTHORS OR COPYRIGHT\nHOLDERS BE LIABLE FOR ANY CLAIM, DAMAGES OR OTHER LIABILITY,\nWHETHER IN AN ACTION OF CONTRACT, TORT OR OTHERWISE, ARISING\nFROM, OUT OF OR IN CONNECTION WITH THE SOFTWARE OR THE USE OR\nOTHER DEALINGS IN THE SOFTWARE.
UComments: "The starting point for a glyph of Sorts Mill Walbaum is a glyph of Sorts Mill Walbaum Display transformed as follows, in FontForge:+AAoACgAA-Element->Style->Change Weight+AAoA-Embolden by: 35 em units+AAoA-Emboldening hints: CJK+AAoA-Counters: Retain+AAoACgAA-CJK emboldening thickens all the lines by a certain amount, and so not only emboldens but also reduces contrast. This is what we want FontForge to do." 
Version: 001.000
ItalicAngle: -12
UnderlinePosition: -204
UnderlineWidth: 102
Ascent: 1472
Descent: 576
LayerCount: 3
Layer: 0 0 "Back"  1
Layer: 1 0 "Fore"  0
Layer: 2 0 "backup"  1
NeedsXUIDChange: 1
XUID: [1021 658 797806517 12611104]
FSType: 0
OS2Version: 0
OS2_WeightWidthSlopeOnly: 0
OS2_UseTypoMetrics: 1
CreationTime: 1248824893

StartChar: y
Encoding: 121 121 0
Width: 1334
VWidth: 0
Flags: HW
LayerCount: 3
Fore
SplineSet
-90 -368 m 0
 -27 -368 14 -447 14 -500 c 0
 14 -521 11 -541 3 -561 c 1
 16 -567 32 -568 49 -568 c 0
 252 -568 463 -200 463 13 c 0
 463 211 386 744 270 744 c 0
 175 744 112 452 92 429 c 0
 84 420 74 416 64 416 c 0
 43.3422639291 416 18.7384067613 431.719538857 18.7384067613 454.841477939 c 0
 18.7384067613 456.202566895 18.823663303 457.589306424 19 459 c 0
 19 462 105 898 359 898 c 0
 610 898 621 519 651 288 c 1
 784 486 855.886267923 617.294778829 1014 816 c 0
 1055.23111093 867.816100398 1094 916 1168 916 c 0
 1261 916 1290 849 1290 796 c 0
 1290 722 1231 668 1179 668 c 0
 1126 668 1103 704 1065 737 c 1
 644 194 594 -37 564 -104 c 0
 378.689129406 -517.860944327 236 -646 14 -646 c 0
 -171 -646 -198 -548 -198 -482 c 0
 -198 -421 -149 -368 -90 -368 c 0
EndSplineSet
EndChar

StartChar: Q
Encoding: 81 81 1
Width: 1593
VWidth: 0
Flags: HW
HStem: -634 54<814.334 1108> -48 58<469.606 776.47> 1500 50<813.598 1091.41>
VStem: 82 214<313.466 678.395> 1300 205<810.332 1218.68>
LayerCount: 3
Fore
SplineSet
296 358 m 0
 296 96 412 10 588 10 c 0
 774 10 934.778773361 80.1664836409 1037 216 c 0
 1184.68039088 412.240521171 1300 978 1300 1074 c 0
 1300 1466 1077 1500 953 1500 c 0
 815 1500 696.025137939 1437.97698546 599 1332 c 0
 490.028233153 1212.97415169 296 665 296 358 c 0
82 569 m 0
 82 941 425 1550 931 1550 c 0
 1389 1550 1505 1240 1505 952 c 0
 1505 809 1462.44172602 588.298730926 1397 466 c 0
 1214.44262924 124.833344957 950 -48 652 -48 c 0
 591 -48 534 -44 468 -38 c 1
 545 -110 596 -142 664 -222 c 0
 765 -341 717 -450 812 -558 c 0
 830 -578 854 -580 883 -580 c 2
 1108 -580 l 1
 1108 -634 l 1
 875 -634 l 2
 418 -634 519 -150 415 -36 c 1
 391 -8 368 12 346 29 c 0
 345 30 82 169 82 569 c 0
EndSplineSet
EndChar

StartChar: O
Encoding: 79 79 2
Width: 1545
VWidth: 0
Flags: HW
HStem: -32 46<574.291 864.477> 1493 35<885.881 1134.72>
VStem: 161 225<295.146 669.917> 1375 195<852.754 1209.76>
LayerCount: 3
Fore
SplineSet
386 352 m 0
 386 90 547 14 709 14 c 0
 895 14 982.778773361 80.1664836409 1085 216 c 0
 1232.68039088 412.240521171 1375 951 1375 1138 c 0
 1375 1400 1183 1493 1020 1493 c 0
 826 1493 666.044892614 1444.98569751 487 883 c 0
 429.014538917 700.995367998 386 504 386 352 c 0
161 540 m 0
 161 893 498 1528 1008 1528 c 0
 1416 1528 1570 1249 1570 973 c 0
 1570 337 1021 -32 728 -32 c 0
 622 -32 161 26 161 540 c 0
EndSplineSet
EndChar

StartChar: A
Encoding: 65 65 3
Width: 1694
VWidth: 0
Flags: HW
HStem: 0 54<72 216 296 576 824 1058 1268 1500> 636 54<864 1226>
LayerCount: 3
Fore
SplineSet
864 690 m 1
 1242 690 l 1
 1423 1306 l 1
 864 690 l 1
72 0 m 1
 72 54 l 1
 216 54 l 1
 1417 1375 1535 1502 1584 1502 c 0
 1591 1502 1606 1498 1606 1482 c 0
 1606 1399 1555 1192 1268 54 c 1
 1500 54 l 1
 1500 0 l 1
 824 0 l 1
 824 54 l 1
 1058 54 l 1
 1226 636 l 1
 821 636 l 1
 296 54 l 1
 576 54 l 1
 576 0 l 1
 72 0 l 1
EndSplineSet
EndChar

StartChar: x
Encoding: 120 120 4
Width: 1306
VWidth: 0
Flags: HW
LayerCount: 3
Fore
SplineSet
1169 167 m 0
 1169 122 921 -60 722 -60 c 0
 562 -60 518 41 506 98 c 1
 452 50 329 -48 211 -48 c 0
 131 -48 44 5 44 94 c 0
 44 167 93 222 166 222 c 0
 220 222 256 166 256 119 c 0
 256 88 249 63 242 44 c 1
 300 56 397 102 500 222 c 0
 541 270 685 562 685 722 c 0
 685 785 661 804 625 804 c 0
 521 804 424.530797125 735.534903408 357 659 c 0
 342 642 327 635 315 635 c 0
 295 635 281 652 281 669 c 0
 281 721 456 896 665 896 c 0
 807 896 864 790 884 737 c 1
 1006 855 1126 894 1193 894 c 0
 1265 894 1324 857 1324 749 c 0
 1324 678 1306 624 1233 624 c 0
 1169 624 1142 682 1128 790 c 1
 1037 764 956 696 921 639 c 0
 817 468 714 156 714 106 c 0
 714 58 767 46 779 46 c 0
 933 46 1092 210 1122 210 c 0
 1136 210 1169 194 1169 167 c 0
EndSplineSet
EndChar

StartChar: z
Encoding: 122 122 5
Width: 1115
VWidth: 0
Flags: HWO
LayerCount: 3
Fore
SplineSet
211 506 m 0
 197 506 159 515 159 547 c 2
 159 551 l 2
 159 558 168 580 183 623 c 2
 263 847 l 2
 275 878 286 890 319 890 c 0
 571 890 725 891 821 891 c 0
 979 891 977 887 986 870 c 0
 995 853 999 843 999 833 c 0
 999 815 983 802 949 767 c 1
 375 218 l 1
 348.075426461 192.518436496 l 1
 372.385793933 197.670711537 405.571963508 204 437 204 c 0
 611 204 692 60 793 60 c 1
 862 61 897 81 914 95 c 1
 894 112 862 147 862 203 c 0
 862 255 909 302 964 302 c 0
 999 302 1072 272 1072 187 c 0
 1072 73 940 -48 678 -48 c 0
 468 -48 388 46 271 46 c 1
 164 43 134 -49 99 -49 c 0
 75 -49 48 -23 48 -1 c 0
 48 15 59 29 72 43 c 1
 746 690 l 1
 312 690 l 2
 301.544357883 690 306.447787545 689.096525189 303.523649267 689.007106222 c 1
 301.814793374 685.293137497 300.670340863 681.093439093 297 671 c 2
 263 584 l 2
 247 541 239 506 211 506 c 0
EndSplineSet
EndChar

StartChar: w
Encoding: 119 119 6
Width: 1603
VWidth: 0
Flags: HW
LayerCount: 3
Fore
SplineSet
1022 886 m 1
 1025.42817614 886 l 2
 1049.3618172 886 1083 885.093023256 1083 846 c 0
 1083 836 1082 820 1073 797 c 2
 995 581 l 1
 867 221 847 160 847 107 c 0
 847 70 859 46 921 46 c 0
 1169 46 1476 339 1476 580 c 0
 1476 662 1312 679 1312 779 c 0
 1312 848 1368 884 1428 884 c 0
 1504 884 1590 826 1590 712 c 0
 1590 333 1253 -40 871 -40 c 0
 684 -40 653 59 653 125 c 2
 653 139 l 1
 583 70 438 -50 269 -50 c 0
 172 -50 76 -12 76 137 c 0
 76 225 108 321 125 384 c 2
 212 723 l 2
 218 750 226 775 232 800 c 1
 71 800 l 1
 42 804 30 824 30 844 c 0
 30 867 46 890 73 890 c 2
 411 890 l 1
 413.176268861 890 l 2
 426.456790123 890 455 889.111111111 455 857 c 0
 455 802 256 222 256 107 c 0
 256 68 283 44 331 44 c 0
 401 44 514.796418474 96.1567239319 634 251 c 0
 677.924982832 308.057750748 714 388 750 487 c 2
 867 809 l 2
 886 863 893 886 952 886 c 2
 1022 886 l 1
EndSplineSet
EndChar

StartChar: v
Encoding: 118 118 7
Width: 1229
VWidth: 0
Flags: HW
LayerCount: 3
Fore
SplineSet
74 604 m 0
 74 653 266 902 504 902 c 0
 573 902 650 878 650 799 c 1
 648 734 441 162 439 107 c 1
 439 70 452 46 515 46 c 0
 770 46 1056 327 1056 539 c 0
 1056 674 903 655 903 780 c 0
 903 851 967 886 1015 886 c 0
 1105 886 1188 790 1188 680 c 0
 1188 552 1096 150 705 3 c 0
 619 -29 529 -48 450 -48 c 0
 322 -48 230 3 230 124 c 0
 230 205 407 681 407 745 c 0
 407 772 397 780 395 780 c 0
 302 780 195 666 144 597 c 0
 134 583 121 572 106 572 c 0
 95 572 74 581 74 604 c 0
EndSplineSet
EndChar

StartChar: u
Encoding: 117 117 8
Width: 1310
VWidth: 0
Flags: HW
LayerCount: 3
Fore
SplineSet
1175 270 m 0
 1199 270 1218 249 1218 229 c 0
 1218 184 1036 -48 823 -48 c 0
 740 -48 689 -10 689 47 c 0
 689 85 704 131 718 175 c 1
 584 39 403 -46 269 -46 c 0
 182 -46 96 -11 96 127 c 0
 96 203 121 293 145 384 c 2
 235 723 l 1
 241 750 249 775 255 800 c 1
 91 800 l 1
 82 801 52 801 52 844 c 0
 52 878 76 890 91 890 c 2
 415 890 l 1
 416.738 890 l 2
 429.1925 890 468 889.1 468 853 c 0
 468 799 276 181 276 107 c 0
 276 77 292 58 352 58 c 0
 510 58 670 228 722 315 c 1
 808 464 911 806 912 811 c 0
 927 864 936 890 998 890 c 2
 1067 890 l 1
 1069.98013174 890 l 2
 1090.62585034 890 1126 889.095238095 1126 851 c 0
 1126 777 908 233 908 95 c 0
 908 75 912 64 922 64 c 0
 942 64 1024 98 1115 207 c 0
 1150.03785771 248.968422974 1155 270 1175 270 c 0
EndSplineSet
EndChar

StartChar: t
Encoding: 116 116 9
Width: 750
VWidth: 0
Flags: HW
LayerCount: 3
Fore
SplineSet
511 890 m 1
 666 890 l 2
 677 890 712 889 712 856 c 0
 712 801 685 800 661 800 c 2
 483 800 l 1
 409 565 l 2
 355 391 275 176 275 91 c 0
 275 67 281 54 296 54 c 0
 342 54 450 122 586 247 c 0
 588 249 595 256 610 256 c 1
 637 252 647 235 647 218 c 0
 647 207 643 195 636 189 c 0
 537 95 396 -36 228 -36 c 0
 116 -36 76 15 76 84 c 0
 76 140 97 209 123 294 c 2
 283 800 l 1
 133 800 l 2
 117 800 92 799 92 835 c 0
 93 893 120 888 157 889 c 2
 311 890 l 1
 397 1147 l 1
 414 1191 443 1192 476 1192 c 2
 544 1192 l 1
 545 1191 l 1
 547 1191 l 2
 561 1191 598 1191 598 1156 c 0
 598 1148 596 1139 595 1135 c 2
 511 890 l 1
EndSplineSet
EndChar

StartChar: a
Encoding: 97 97 10
Width: 1256
VWidth: 0
Flags: HW
LayerCount: 3
Fore
SplineSet
255.5 126 m 0
 255.5 46.9873046875 288.5 19.5 339.722811638 19.5 c 0
 434.896770483 19.5 590.269397878 113.8203125 682.816651989 233.345703125 c 0
 784.002021082 364.02734375 812.302779362 594.447265625 812.302779362 641 c 0
 812.302779362 724.158203125 763.827856171 832.5 674.488956372 832.5 c 0
 488.829299272 832.5 255.5 374.423828125 255.5 126 c 0
1212.5483579 254.061502202 m 0
 1212.5483579 221.783361679 1056.10080011 -35.5 804.382444707 -35.5 c 0
 749.586723197 -35.5 690.857647992 -11.7998046875 690.857647992 83 c 0
 690.857647992 100.671875 692.679943738 116.881835938 695.146797969 132.956054688 c 1
 628.184906156 66.501953125 488.11048765 -47.5 314.377740743 -47.5 c 0
 119.517578125 -47.5 61.5 111.6796875 61.5 259 c 0
 61.5 595.244140625 397.589725414 907.5 647.031796236 907.5 c 0
 810.04321514 907.5 863.900459497 791.719726562 881.687179782 713.267578125 c 1
 952.096506845 884.506876242 941.617111912 907.5 1015 907.5 c 2
 1073 907.5 l 2
 1090.05269184 907.34623105 1130.6335141 908.649534123 1130.6335141 871.275296164 c 0
 1130.6335141 812.581913651 895.73030439 270.255059233 895.73030439 120 c 0
 895.73030439 88.1235438659 908.979359281 81.4801265463 923.38299767 81.4801265463 c 0
 1026.47000941 81.4801265463 1132.68343689 256.756510422 1152.92675781 276.662109375 c 0
 1160.47167921 284.081157868 1169.10629128 287.206851304 1177.41806972 287.206851304 c 0
 1195.77013401 287.206851304 1212.5483579 271.968839394 1212.5483579 254.061502202 c 0
EndSplineSet
EndChar

StartChar: b
Encoding: 98 98 11
Width: 1183
VWidth: 0
Flags: HW
LayerCount: 3
Fore
SplineSet
322 158 m 0
 322 39 367 16 439 16 c 0
 692 16 826 346 860 425 c 1
 924 579 948 671 948 733 c 0
 948 833 885 858 824 858 c 0
 724 858 587 790 494 675 c 0
 440 608 322 230 322 158 c 0
332 1502 m 2
 676 1502 l 2
 691 1502 721 1500 721 1470 c 0
 721 1459 719 1453 707 1417 c 1
 530 833 l 1
 598 877 732 952 868 952 c 0
 1039 952 1144 803 1144 644 c 0
 1144 266 777 -66 457 -66 c 0
 316 -66 122 -8 122 125 c 0
 122 244 216 437 510 1414 c 1
 323 1414 l 2
 295 1414 286 1429 286 1447 c 2
 286 1452 l 2
 286 1500 318 1502 332 1502 c 2
EndSplineSet
EndChar

StartChar: c
Encoding: 99 99 12
Width: 982
VWidth: 0
Flags: HW
LayerCount: 3
Fore
SplineSet
810 163 m 0
 810 109 592 -64 411 -64 c 0
 147 -64 40 100 40 300 c 0
 40 583 261 936 622 936 c 0
 789 936 920 844 920 706 c 0
 920 654 902 580 834 580 c 0
 766 580 750 642 750 679 c 0
 750 695 754 745 754 761 c 0
 754 814 711 851 640 851 c 0
 521 851 462 791 400 705 c 0
 296 560 250 343 250 242 c 0
 250 114 281 24 415 24 c 1
 640 27 726 206 769 206 c 0
 788 206 810 187 810 163 c 0
EndSplineSet
EndChar

StartChar: d
Encoding: 100 100 13
Width: 1251
VWidth: -20
Flags: HW
LayerCount: 3
Fore
SplineSet
625 866 m 0
 458 866 348 613 303 501 c 1
 245 350 228 267 228 208 c 0
 228 68 300 48 350 48 c 0
 482 48 672 187 714 343 c 0
 717 353 809 656 809 688 c 0
 809 769 725 866 625 866 c 0
1211 245 m 0
 1211 211 1022 -56 798 -56 c 0
 701 -56 663 9 663 77 c 0
 663 92 664 106 666 120 c 1
 561 16 436 -40 335 -40 c 0
 160 -40 42 90 42 266 c 0
 42 582 282 960 601 960 c 0
 719 960 803 892 848 810 c 1
 1026 1414 l 1
 811 1414 l 2
 789 1414 766 1419 766 1451 c 2
 766 1456 l 2
 766 1484 782 1502 808 1502 c 2
 1172 1502 l 2
 1186 1502 1222 1504 1222 1467 c 0
 1222 1398 860 241 860 117 c 0
 860 84 867 52 897 52 c 0
 991 52 1130 262 1144 272 c 0
 1152 278 1162 282 1173 282 c 1
 1199 278 1211 261 1211 245 c 0
EndSplineSet
EndChar

StartChar: e
Encoding: 101 101 14
Width: 924
VWidth: 0
Flags: HW
LayerCount: 3
Fore
SplineSet
665 810 m 0
 500 810 369 576 325 477 c 1
 492 525 734 640 734 744 c 0
 734 767 720 810 665 810 c 0
832 230 m 0
 832 176 588 -50 325 -50 c 0
 175 -50 58 2 58 219 c 0
 58 574 386 908 709 908 c 0
 825 908 882 840 882 760 c 0
 882 529 465 437 295 376 c 1
 284 352 266 290 266 210 c 0
 266 92 334 54 400 54 c 0
 576 54 765 258 765 258 c 1
 774 265 782 268 793 268 c 0
 818 268 832 249 832 230 c 0
EndSplineSet
EndChar

StartChar: f
Encoding: 102 102 15
Width: 950
VWidth: 0
Flags: HW
LayerCount: 3
Fore
SplineSet
130 800 m 2
 114 800 89 802 89 842 c 0
 89 859 93 890 134 890 c 2
 377 890 l 1
 399 993 531 1574 919 1574 c 0
 1078 1574 1130 1457 1130 1398 c 0
 1130 1339 1086 1292 1043 1292 c 0
 950 1292 946 1420 946 1480 c 2
 946 1490 l 1
 650 1476 643 1121 599 890 c 1
 834 890 l 1
 846 889 878 890 878 851 c 0
 878 840 877 800 834 800 c 2
 583 800 l 1
 430 139 363.263423311 -79.51781029 215 -306 c 0
 201.93509319 -325.957509658 51 -594 -195 -594 c 0
 -271 -594 -450 -560 -450 -420 c 0
 -450 -331 -396 -282 -340 -282 c 0
 -287 -282 -236 -327 -236 -403 c 1
 -238 -456 -251 -488 -265 -505 c 1
 -248 -512 -222 -516 -190 -516 c 0
 138 -516 261 238 359 800 c 1
 130 800 l 2
EndSplineSet
EndChar

StartChar: g
Encoding: 103 103 16
Width: 1332
VWidth: 0
Flags: HW
LayerCount: 3
Fore
SplineSet
718 834 m 0
 567 834 458 658 458 518 c 0
 458 417 515 366 574 366 c 0
 714 366 820 558 820 700 c 0
 820 761 800 834 718 834 c 0
886 -200 m 0
 886 -164 875 -46 719 -46 c 0
 581 -46 360 -72 257 -87 c 0
 144 -104 82 -194 82 -287 c 0
 82 -450 235 -528 417 -528 c 0
 644 -528 886 -395 886 -200 c 0
334 354 m 0
 216 354 174 294 174 254 c 0
 174 198 224 136 296 136 c 0
 438 136 514 178 732 178 c 0
 927 178 1020 63 1020 -106 c 0
 1020 -408 736 -612 369 -612 c 0
 63 -612 -56 -465 -56 -317 c 0
 -56 -146 79 -78 170 -48 c 1
 107 -11 56 62 56 130 c 0
 56 194 75 411 286 430 c 1
 274 452 260 488 260 531 c 0
 260 773 520 922 731 922 c 0
 827 922 936 877 981 793 c 1
 1017 832 1096 908 1173 908 c 0
 1247 908 1292 857 1292 789 c 0
 1292 737 1259 696 1216 696 c 1
 1133 702 1143 798 1116 798 c 0
 1096 798 1021 738 1018 685 c 0
 1005.37929816 462.034267465 812 280 567 280 c 0
 436 280 381 354 334 354 c 0
EndSplineSet
EndChar

StartChar: h
Encoding: 104 104 17
Width: 1359
VWidth: 0
Flags: HW
LayerCount: 3
Fore
SplineSet
927 68 m 0
 927 54 931 44 959 44 c 0
 1050 44 1161 173 1184 204 c 0
 1195 220 1202 222 1215 222 c 0
 1234 222 1258 203 1258 179 c 0
 1258 142 1116 -58 859 -58 c 0
 781 -58 698 -33 698 44 c 0
 698 127 921 636 921 726 c 0
 921 787 893 804 852 804 c 0
 613 804 424.344933222 512.896902964 394 412 c 0
 354 279 290 84 271 30 c 0
 259 -3 236 -18 214 -18 c 2
 129 -18 l 1
 120 -17 78 -17 78 21 c 0
 78 79 184 341 511 1414 c 1
 299 1414 l 2
 271 1414 262 1429 262 1447 c 2
 262 1452 l 2
 262 1500 294 1502 308 1502 c 2
 672 1502 l 2
 686 1502 719 1501 719 1470 c 0
 719 1459 714.837404216 1448.05198026 705 1417 c 2
 475 691 l 1
 555 772 710 900 891 900 c 0
 1031 900 1132 819 1132 697 c 0
 1132 550 927 136 927 68 c 0
EndSplineSet
EndChar

StartChar: i
Encoding: 105 105 18
Width: 638
VWidth: 0
Flags: HW
LayerCount: 3
Fore
SplineSet
499 856 m 0
 499 797 280 190 280 78 c 0
 280 62 283 58 299 58 c 0
 328 58 409 89 511 225 c 0
 529 249 541 250 549 250 c 1
 549 250 589 247 589 213 c 0
 589 163 406 -54 199 -54 c 0
 121 -54 78 -17 78 64 c 0
 78 109 112 210 290 800 c 1
 121 800 l 1
 92 804 80 824 80 844 c 0
 80 867 96 890 123 890 c 2
 454 890 l 2
 462 890 499 891 499 856 c 0
493 1448 m 0
 558 1448 610 1396 610 1332 c 0
 610 1268 558 1216 493 1216 c 0
 428 1216 376 1268 376 1332 c 0
 376 1396 428 1448 493 1448 c 0
EndSplineSet
EndChar

StartChar: j
Encoding: 106 106 19
Width: 673
VWidth: 0
Flags: HW
LayerCount: 3
Fore
SplineSet
560 890 m 2
 574 890 603 889 603 859 c 0
 603 836 302.860438721 -107.954550451 268 -215 c 0
 184.666379798 -470.89135319 185 -527 -24 -594 c 1
 -99 -620 -173 -630 -210 -630 c 0
 -239 -630 -265 -622 -265 -582 c 0
 -265 -494 -69 -610 7 -390 c 1
 87 -170 53.5158146748 -250.845451789 138 13 c 2
 390 800 l 1
 207 800 l 1
 176 804 163 824 163 844 c 0
 163 867 180 890 209 890 c 2
 560 890 l 2
598 1448 m 0
 663 1448 716 1396 716 1332 c 0
 716 1268 663 1216 598 1216 c 0
 533 1216 480 1268 480 1332 c 0
 480 1396 533 1448 598 1448 c 0
EndSplineSet
EndChar

StartChar: k
Encoding: 107 107 20
Width: 1197
VWidth: 0
Flags: HW
LayerCount: 3
Fore
SplineSet
444 539 m 1
 517 612 738 910 987 910 c 0
 1092 910 1136 851 1136 790 c 0
 1136 732 1094 670 1029 670 c 0
 944 670 903 759 889 798 c 1
 782 761 667 682 581 578 c 1
 625 588 678 596 729 596 c 0
 879 596 902 519 902 468 c 0
 902 308 824 154 824 82 c 0
 824 58 833 52 850 52 c 0
 940 52 1084 188 1084 188 c 2
 1088 190 1094 192 1100 192 c 0
 1121 192 1143 173 1143 151 c 0
 1143 122 992 -42 775 -42 c 0
 702 -42 631 -16 631 88 c 0
 631 184 705 334 705 428 c 0
 705 484 677 498 635 498 c 0
 566 498 500.071865091 460.905344909 462 432 c 0
 368.177101676 360.76673549 360 299 271 31 c 0
 271 30 256 -18 214 -18 c 2
 139 -18 l 2
 132 -18 88 -18 88 20 c 0
 88 57 164.259358245 272.920620178 263 596 c 2
 513 1414 l 1
 299 1414 l 2
 271 1414 262 1429 262 1447 c 2
 262 1452 l 2
 262 1500 294 1502 308 1502 c 2
 678 1502 l 2
 693 1502 723 1500 723 1470 c 0
 723 1452 481 667 444 539 c 1
EndSplineSet
EndChar

StartChar: l
Encoding: 108 108 21
Width: 763
VWidth: 0
Flags: HW
LayerCount: 3
Fore
SplineSet
676 236 m 0
 676 214 552 -36 248 -36 c 0
 151 -36 114 9 114 78 c 0
 114 111 123.226328216 145.931620548 134 182 c 2
 502 1414 l 1
 299 1414 l 2
 271 1414 262 1429 262 1447 c 2
 262 1452 l 2
 262 1500 294 1502 308 1502 c 2
 652 1502 l 2
 663 1502 699 1503 699 1470 c 0
 699 1454 564 1004 385 391 c 0
 349 266 310 160 310 111 c 0
 310 83 319 72 363 72 c 0
 458 72 570.964140214 211.02451262 599 252 c 0
 612 271 623 274 638 274 c 1
 666 269 676 250 676 236 c 0
EndSplineSet
EndChar

StartChar: m
Encoding: 109 109 22
Width: 1881
VWidth: 0
Flags: HW
LayerCount: 3
Fore
SplineSet
652 29 m 0
 652 83 907 656 907 764 c 0
 907 795 896 814 849 814 c 0
 677 814 480.045107817 593.978300851 418 465 c 0
 327.066110438 275.968197524 249 25 232 3 c 0
 224 -8 210 -18 185 -18 c 2
 107 -18 l 1
 90 -17 54 -17 54 24 c 0
 54 64 87 140 318 800 c 1
 149 800 l 1
 120 804 108 824 108 844 c 0
 108 867 124 890 151 890 c 2
 478.785974632 890 l 2
 490.689750693 890 523 889.105263158 523 855 c 0
 523 842 498 771 456 659 c 1
 544 756 704 902 878 902 c 0
 1055 902 1083 806 1083 742 c 0
 1083 719 1079 696 1075 675 c 1
 1158 755 1338 900 1544 900 c 0
 1668 900 1698 826 1698 747 c 0
 1698 603 1482 167 1482 96 c 0
 1482 78 1486 66 1513 66 c 0
 1562 66 1658 122 1734 253 c 0
 1747 276 1762 284 1776 284 c 0
 1798 284 1816 263 1816 248 c 0
 1816 224 1712 -28 1427 -28 c 0
 1352 -28 1273 -1 1273 81 c 0
 1273 183 1507 667 1507 742 c 0
 1507 787 1492 802 1454 802 c 0
 1379 802 1143.07583235 707.964185037 1016 439 c 0
 853 94 878 -18 785 -18 c 2
 702 -18 l 2
 661 -18 652 7 652 29 c 0
EndSplineSet
EndChar

StartChar: n
Encoding: 110 110 23
Width: 1293
VWidth: 0
Flags: HW
LayerCount: 3
Fore
SplineSet
73 22 m 0
 73 56 170 366 309 800 c 1
 149 800 l 1
 120 804 108 824 108 844 c 0
 108 867 124 890 151 890 c 2
 466 890 l 2
 479 890 512 889 512 855 c 0
 512 842 489 776 468 716 c 1
 547 796 696 914 894 914 c 0
 1006 914 1108 881 1108 745 c 0
 1108 631 916 165 916 96 c 0
 916 84 920 66 954 66 c 0
 1046 66 1149 222 1162 235 c 0
 1168 241 1176 244 1184 244 c 1
 1208 240 1219 225 1219 211 c 0
 1219 185 1087 -38 873 -38 c 0
 800 -38 705 -11 705 92 c 0
 705 187 897 659 897 749 c 0
 897 791 871 828 820 828 c 0
 726 828 591 731 503 629 c 0
 371 475 278.873998141 36.0817748866 260 7 c 0
 250.939512644 -6.96074385931 236 -18 209 -18 c 0
 181.666666667 -18 154.333333333 -18 127 -18 c 0
 115 -18 73 -17 73 22 c 0
EndSplineSet
EndChar

StartChar: o
Encoding: 111 111 24
Width: 1104
VWidth: 0
Flags: HW
LayerCount: 3
Fore
SplineSet
39.5 325 m 0
 39.5 503.895507812 190.411132812 943.5 697.510623519 943.5 c 0
 913.600585938 943.5 1055.5 798.8203125 1055.5 588 c 0
 1055.5 233.018554688 741.829470816 -51.5 441.421059083 -51.5 c 0
 215.513671875 -51.5 39.5 99.099609375 39.5 325 c 0
652.507436463 866.5 m 0
 383.764911232 866.5 262.5 348.8125 262.5 216 c 0
 262.5 135.286132812 292.481940018 31.5 418.919465555 31.5 c 0
 666.005881241 31.5 839.5 364.26171875 839.5 694 c 0
 839.5 818.390625 786.259235566 866.5 652.507436463 866.5 c 0
EndSplineSet
EndChar

StartChar: p
Encoding: 112 112 25
Width: 793
VWidth: 0
Flags: HW
LayerCount: 3
Fore
SplineSet
464 775.5 m 0
 542.091796875 775.5 599.5 706.55859375 599.5 631 c 0
 599.5 550.127929688 537.203125 481.5 455 481.5 c 0
 377.647460938 481.5 310.5 543.544921875 310.5 622 c 0
 310.5 713.774414062 382.385742188 775.5 464 775.5 c 0
EndSplineSet
EndChar

StartChar: q
Encoding: 113 113 26
Width: 793
VWidth: 0
Flags: HW
LayerCount: 3
Fore
SplineSet
464 775.5 m 0
 542.091796875 775.5 599.5 706.55859375 599.5 631 c 0
 599.5 550.127929688 537.203125 481.5 455 481.5 c 0
 377.647460938 481.5 310.5 543.544921875 310.5 622 c 0
 310.5 713.774414062 382.385742188 775.5 464 775.5 c 0
EndSplineSet
EndChar

StartChar: r
Encoding: 114 114 27
Width: 1016
VWidth: 0
Flags: HW
LayerCount: 3
Fore
SplineSet
84 843 m 0
 84 889.08 123.6288 890 137.415936 890 c 2
 139 890 l 1
 517 890 l 1
 553 889 568 884 568 865 c 0
 568 842 547 798 513 710 c 1
 607 786 770 892 876 892 c 0
 945 892 988 845 988 770 c 0
 988 672 931 614 867 614 c 0
 817 614 772 652 772 722 c 0
 772 736 775 751 777 764 c 1
 695 725 491 615 390 384 c 0
 222.354573101 0.573330557446 276 -18 170 -18 c 2
 127 -18 l 2
 83 -18 54 -18 54 25 c 0
 54 36 54 37 67 79 c 1
 324 800 l 1
 127 800 l 1
 96 803 84 823 84 843 c 0
EndSplineSet
EndChar

StartChar: s
Encoding: 115 115 28
Width: 851
VWidth: 0
Flags: HW
LayerCount: 3
Fore
SplineSet
133 307.5 m 0
 177.200195312 307.5 243.5 282.778320312 243.5 139 c 0
 243.5 87.833984375 250.885742188 41.5 350.105038635 41.5 c 0
 435.052048014 41.5 542.339343207 91.7001953125 542.339343207 167 c 0
 542.339343207 321.657226562 211.5 408.364257812 211.5 620 c 0
 211.5 708.321289062 293.116810049 916.5 537.205489375 916.5 c 0
 674.950195312 916.5 797.5 839.900390625 797.5 725 c 0
 797.5 674.825195312 769.299804688 635.5 727 635.5 c 0
 586.395507812 635.5 655.694335938 824.5 507.543222795 824.5 c 0
 434.492760987 824.5 372.351738571 789.896484375 372.351738571 748 c 0
 372.351738571 653.345703125 723.5 490.30859375 723.5 271 c 0
 723.5 120.510742188 580.9609375 -55.5 337.555618158 -55.5 c 0
 139.309570312 -55.5 22.5 74.37109375 22.5 192 c 0
 22.5 260.606445312 76.458984375 307.5 133 307.5 c 0
EndSplineSet
EndChar

